<svg xmlns="http://www.w3.org/2000/svg" viewBox="0 0 1280 800" font-family="Inter, system-ui, sans-serif">
  <rect width="1280" height="800" fill="#F5F6F8"/>

  <!-- iPad -->
  <g transform="translate(80,80)">
    <!-- bezel -->
    <rect width="640" height="640" rx="32" fill="#1A1F24"/>
    <rect x="14" y="14" width="612" height="612" rx="20" fill="#FFFFFF"/>
    <circle cx="320" cy="22" r="4" fill="#0F2A47" opacity="0.4"/>

    <!-- Excel iPad UI -->
    <g transform="translate(14,30)">
      <!-- Top bar -->
      <rect width="612" height="38" fill="#0F2A47"/>
      <text x="20" y="24" fill="#FFFFFF" font-size="12" font-weight="700">Plan d’action EHS</text>
      <text x="592" y="24" fill="#FFFFFF" font-size="12" text-anchor="end">⋯</text>

      <!-- Tabs -->
      <g transform="translate(0,38)">
        <rect width="612" height="32" fill="#1A1F24"/>
        <g font-size="11" font-weight="600" fill="#FFFFFF">
          <text x="14" y="20" opacity="0.7">📝</text>
          <rect x="44" y="4" width="120" height="24" rx="3" fill="#F26B1F"/>
          <text x="104" y="20" text-anchor="middle">📋 Plan</text>
          <text x="200" y="20" opacity="0.7">📊</text>
          <text x="230" y="20" opacity="0.7">📅</text>
          <text x="260" y="20" opacity="0.7">📒</text>
        </g>
      </g>

      <!-- Table mobile -->
      <g transform="translate(0,70)" font-size="10.5">
        <!-- Header -->
        <rect width="612" height="30" fill="#0F2A47"/>
        <rect y="30" width="612" height="2" fill="#F26B1F"/>
        <g fill="#FFFFFF" font-weight="700" letter-spacing="0.04em">
          <text x="12" y="19">ID</text>
          <text x="74" y="19">TITRE</text>
          <text x="288" y="19">PILOTE</text>
          <text x="392" y="19">ÉCHÉANCE</text>
          <text x="478" y="19">STATUT</text>
        </g>

        <!-- Rows -->
        <g transform="translate(0,32)" fill="#1A1F24">
          <g>
            <rect width="612" height="28" fill="#FFFFFF"/>
            <line y1="28" x2="612" y2="28" stroke="#E5E7EB" stroke-width="0.5"/>
            <text x="12" y="18">PA-001</text>
            <text x="74" y="18">Sécuriser machine A12</text>
            <text x="288" y="18">P. Martin</text>
            <text x="392" y="18">10-05-26</text>
            <rect x="476" y="6" width="120" height="16" rx="2" fill="#FCEFCB"/>
            <text x="536" y="18" text-anchor="middle" fill="#8C6310" font-weight="700" font-size="9.5">EN COURS</text>
          </g>
          <g transform="translate(0,28)">
            <rect width="612" height="28" fill="#FFFFFF"/>
            <line y1="28" x2="612" y2="28" stroke="#E5E7EB" stroke-width="0.5"/>
            <text x="12" y="18">PA-002</text>
            <text x="74" y="18">Marquage zone chariots</text>
            <text x="288" y="18">E. Dubois</text>
            <text x="392" y="18">05-04-26</text>
            <rect x="476" y="6" width="120" height="16" rx="2" fill="#DCEDE3"/>
            <text x="536" y="18" text-anchor="middle" fill="#1F6E45" font-weight="700" font-size="9.5">RÉALISÉE</text>
          </g>
          <g transform="translate(0,56)">
            <rect width="612" height="28" fill="#FFFFFF"/>
            <line y1="28" x2="612" y2="28" stroke="#E5E7EB" stroke-width="0.5"/>
            <text x="12" y="18">PA-003</text>
            <text x="74" y="18">Analyse environnement</text>
            <text x="288" y="18">J. Durand</text>
            <text x="392" y="18" fill="#9A2421" font-style="italic" font-weight="700">19-05-26</text>
            <rect x="476" y="6" width="120" height="16" rx="2" fill="#F8D7D6"/>
            <text x="536" y="18" text-anchor="middle" fill="#9A2421" font-weight="700" font-size="9.5">EN RETARD</text>
          </g>
          <g transform="translate(0,84)">
            <rect width="612" height="28" fill="#FFFFFF"/>
            <line y1="28" x2="612" y2="28" stroke="#E5E7EB" stroke-width="0.5"/>
            <text x="12" y="18">PA-004</text>
            <text x="74" y="18">Maintenance préventive</text>
            <text x="288" y="18">S. Bernard</text>
            <text x="392" y="18">04-06-26</text>
            <rect x="476" y="6" width="120" height="16" rx="2" fill="#FCEFCB"/>
            <text x="536" y="18" text-anchor="middle" fill="#8C6310" font-weight="700" font-size="9.5">EN COURS</text>
          </g>
          <g transform="translate(0,112)">
            <rect width="612" height="28" fill="#FFFFFF"/>
            <line y1="28" x2="612" y2="28" stroke="#E5E7EB" stroke-width="0.5"/>
            <text x="12" y="18">PA-005</text>
            <text x="74" y="18">Réorganisation découpe</text>
            <text x="288" y="18">J. Durand</text>
            <text x="392" y="18">18-08-26</text>
            <rect x="476" y="6" width="120" height="16" rx="2" fill="#E6EDF5"/>
            <text x="536" y="18" text-anchor="middle" fill="#1E4574" font-weight="700" font-size="9.5">À PLANIFIER</text>
          </g>
          <g transform="translate(0,140)">
            <rect width="612" height="28" fill="#FFFFFF"/>
            <text x="12" y="18">PA-006</text>
            <text x="74" y="18">Analyse 5 pourquoi</text>
            <text x="288" y="18">S. Bernard</text>
            <text x="392" y="18">31-03-26</text>
            <rect x="476" y="6" width="120" height="16" rx="2" fill="#DCEDE3"/>
            <text x="536" y="18" text-anchor="middle" fill="#1F6E45" font-weight="700" font-size="9.5">RÉALISÉE</text>
          </g>
        </g>
      </g>

      <!-- KPI mini cards bottom -->
      <g transform="translate(20,360)">
        <rect width="180" height="80" rx="6" fill="#FFFFFF" stroke="#E5E7EB"/>
        <text x="14" y="22" font-size="9" font-weight="700" fill="#4A5057" letter-spacing="0.08em">EN RETARD</text>
        <text x="14" y="56" font-size="28" font-weight="800" fill="#C8312E">12</text>
      </g>
      <g transform="translate(216,360)">
        <rect width="180" height="80" rx="6" fill="#FFFFFF" stroke="#E5E7EB"/>
        <text x="14" y="22" font-size="9" font-weight="700" fill="#4A5057" letter-spacing="0.08em">% RÉALISÉES</text>
        <text x="14" y="56" font-size="28" font-weight="800" fill="#2A8F5A">68%</text>
      </g>
      <g transform="translate(412,360)">
        <rect width="180" height="80" rx="6" fill="#FFFFFF" stroke="#E5E7EB"/>
        <text x="14" y="22" font-size="9" font-weight="700" fill="#4A5057" letter-spacing="0.08em">OUVERTES</text>
        <text x="14" y="56" font-size="28" font-weight="800" fill="#0F2A47">187</text>
      </g>

      <!-- Footer -->
      <g transform="translate(0,460)">
        <line x1="20" y1="0" x2="592" y2="0" stroke="#E5E7EB"/>
        <text x="20" y="22" font-size="10" fill="#9AA0A8">CODEX EHS · Plan d’Action v2 · Usine principale · 2026</text>
      </g>
    </g>
  </g>

  <!-- iPhone -->
  <g transform="translate(800,180)">
    <!-- bezel -->
    <rect width="320" height="540" rx="36" fill="#1A1F24"/>
    <rect x="12" y="12" width="296" height="516" rx="26" fill="#FFFFFF"/>
    <rect x="120" y="20" width="80" height="20" rx="10" fill="#1A1F24"/>

    <g transform="translate(12,52)">
      <!-- top bar -->
      <rect width="296" height="36" fill="#0F2A47"/>
      <text x="148" y="22" text-anchor="middle" fill="#FFFFFF" font-size="11" font-weight="700">Dashboard EHS</text>

      <!-- KPI stacked -->
      <g transform="translate(14,52)">
        <rect width="268" height="68" rx="6" fill="#FFFFFF" stroke="#E5E7EB"/>
        <text x="14" y="22" font-size="9.5" font-weight="700" fill="#4A5057" letter-spacing="0.08em">EN RETARD</text>
        <text x="14" y="56" font-size="26" font-weight="800" fill="#C8312E">12</text>
        <text x="100" y="56" font-size="10" fill="#9AA0A8">actions critiques</text>
      </g>
      <g transform="translate(14,128)">
        <rect width="268" height="68" rx="6" fill="#FFFFFF" stroke="#E5E7EB"/>
        <text x="14" y="22" font-size="9.5" font-weight="700" fill="#4A5057" letter-spacing="0.08em">% RÉALISÉES</text>
        <text x="14" y="56" font-size="26" font-weight="800" fill="#2A8F5A">68%</text>
        <text x="92" y="56" font-size="10" fill="#9AA0A8">182 sur 268</text>
      </g>
      <g transform="translate(14,204)">
        <rect width="268" height="68" rx="6" fill="#FFFFFF" stroke="#E5E7EB"/>
        <text x="14" y="22" font-size="9.5" font-weight="700" fill="#4A5057" letter-spacing="0.08em">CRITICITÉ MOY.</text>
        <text x="14" y="56" font-size="26" font-weight="800" fill="#0F2A47">9,6</text>
        <text x="76" y="56" font-size="10" fill="#9AA0A8">/ 25 max</text>
      </g>

      <!-- Top action -->
      <g transform="translate(14,288)">
        <rect width="268" height="148" rx="6" fill="#FCEFEE" stroke="#C8312E" stroke-width="1.5"/>
        <text x="14" y="22" font-size="9.5" font-weight="700" fill="#9A2421" letter-spacing="0.08em">⚠ ACTION CRITIQUE EN RETARD</text>
        <text x="14" y="46" font-size="11" font-weight="700" fill="#0F2A47">PA-0008 — Plan TMS</text>
        <text x="14" y="64" font-size="10" fill="#4A5057">Pilote : Julie Durand</text>
        <text x="14" y="80" font-size="10" fill="#4A5057">Échéance : 25-04-26 (24j de retard)</text>
        <text x="14" y="96" font-size="10" fill="#4A5057">Criticité : 16 (Gravité 4 × Proba 4)</text>
        <rect x="14" y="110" width="240" height="26" rx="4" fill="#0F2A47"/>
        <text x="134" y="127" text-anchor="middle" fill="#FFFFFF" font-size="11" font-weight="700">Voir la fiche →</text>
      </g>
    </g>
  </g>

  <!-- Annotations -->
  <g transform="translate(80,40)">
    <text x="0" y="22" font-size="20" font-weight="800" fill="#0F2A47" letter-spacing="-0.02em">Consultable partout — atelier, voiture, salle de réunion</text>
    <text x="0" y="44" font-size="12" fill="#4A5057">Excel mobile iOS / Android · pas d’app à installer · lecture seule terrain</text>
  </g>

  <g transform="translate(800,80)">
    <rect width="380" height="80" rx="6" fill="#0F2A47"/>
    <text x="20" y="26" fill="#FFFFFF" font-size="12" font-weight="700" letter-spacing="0.04em">PRÉ-RUNDE DG / CSSCT EN 30 SECONDES</text>
    <text x="20" y="48" fill="#FFFFFF" font-size="11" opacity="0.9">Tu ouvres l’iPhone, tu vois les retards.</text>
    <text x="20" y="66" fill="#FFFFFF" font-size="11" opacity="0.9">Tu sais quoi pousser sans rouvrir le PC.</text>
  </g>
</svg>
